# xmcd CD database file
#
# Track frame offsets:
#	150
#	23376
#	47229
#	77226
#	111104
#	143014
#	176027
#	199522
#
# Disc length: 2986 seconds
#
# Revision: 1
# Processed by: cddbd v1.5.1PL2 Copyright (c) Steve Scherf et al.
# Submitted via: CDex 1.50
#
DISCID=600ba808
DTITLE=Sergio Verdinelli - Primo
DYEAR=2005
DGENRE=Jazz
TTITLE0=Relumbrón
TTITLE1=Gato Chino
TTITLE2=Eme Ese
TTITLE3=Primo
TTITLE4=Recuerdo de mi
TTITLE5=Colocón
TTITLE6=o que me des-vela
TTITLE7=Cosa e' Mandinga
EXTD=YEAR: 2005
EXTT0=
EXTT1=
EXTT2=
EXTT3=
EXTT4=
EXTT5=
EXTT6=
EXTT7=
PLAYORDER=
